<svg width="16" height="11" viewBox="0 0 16 11" fill="none" xmlns="http://www.w3.org/2000/svg">
<path d="M0.63 3.266C0.63 2.79 0.7 2.35133 0.84 1.95C0.989333 1.54867 1.19933 1.208 1.47 0.928C1.75 0.638666 2.086 0.414666 2.478 0.255999C2.87933 0.0879994 3.33667 0.00399935 3.85 0.00399935C4.90467 0.00399935 5.73067 0.321333 6.328 0.956C6.93467 1.58133 7.238 2.496 7.238 3.7C7.238 4.78267 7.098 5.72067 6.818 6.514C6.54733 7.298 6.17867 7.956 5.712 8.488C5.25467 9.01067 4.72267 9.412 4.116 9.692C3.50933 9.972 2.87 10.14 2.198 10.196L1.806 8.768C2.31933 8.70267 2.77667 8.57667 3.178 8.39C3.57933 8.20333 3.92467 7.97467 4.214 7.704C4.50333 7.424 4.73667 7.11133 4.914 6.766C5.10067 6.41133 5.23133 6.03333 5.306 5.632C5.082 5.87467 4.83933 6.04267 4.578 6.136C4.326 6.22933 3.98533 6.276 3.556 6.276C3.20133 6.276 2.84667 6.21533 2.492 6.094C2.14667 5.97267 1.834 5.79067 1.554 5.548C1.28333 5.296 1.05933 4.98333 0.882 4.61C0.714 4.22733 0.63 3.77933 0.63 3.266ZM2.394 3.168C2.394 3.7 2.54333 4.10133 2.842 4.372C3.14067 4.64267 3.514 4.778 3.962 4.778C4.34467 4.778 4.65733 4.71733 4.9 4.596C5.14267 4.47467 5.32933 4.32533 5.46 4.148C5.488 3.952 5.502 3.76533 5.502 3.588C5.502 3.32667 5.46933 3.07 5.404 2.818C5.33867 2.566 5.236 2.342 5.096 2.146C4.96533 1.95 4.79267 1.796 4.578 1.684C4.37267 1.56267 4.12533 1.502 3.836 1.502C3.37867 1.502 3.024 1.65133 2.772 1.95C2.52 2.23933 2.394 2.64533 2.394 3.168ZM15.2234 6.962C15.2234 7.41933 15.144 7.844 14.9854 8.236C14.836 8.628 14.6214 8.96867 14.3414 9.258C14.0614 9.54733 13.7207 9.776 13.3194 9.944C12.9274 10.112 12.4934 10.196 12.0174 10.196C11.532 10.196 11.084 10.1213 10.6734 9.972C10.272 9.81333 9.92203 9.58 9.62336 9.272C9.32469 8.964 9.09136 8.57667 8.92336 8.11C8.75536 7.64333 8.67136 7.102 8.67136 6.486C8.67136 5.562 8.80203 4.72667 9.06336 3.98C9.33403 3.23333 9.69336 2.58467 10.1414 2.034C10.5987 1.474 11.126 1.026 11.7234 0.69C12.33 0.344666 12.9694 0.116 13.6414 0.00399935L14.0474 1.446C13.5807 1.52067 13.1514 1.66533 12.7594 1.88C12.3674 2.09467 12.0174 2.35133 11.7094 2.65C11.4107 2.94867 11.154 3.28467 10.9394 3.658C10.734 4.022 10.5894 4.4 10.5054 4.792C10.692 4.55867 10.9347 4.36267 11.2334 4.204C11.532 4.036 11.9054 3.952 12.3534 3.952C12.7734 3.952 13.1607 4.01733 13.5154 4.148C13.87 4.27867 14.1734 4.47467 14.4254 4.736C14.6774 4.988 14.8734 5.30067 15.0134 5.674C15.1534 6.04733 15.2234 6.47667 15.2234 6.962ZM13.4594 7.06C13.4594 6.01467 12.946 5.492 11.9194 5.492C11.546 5.492 11.2287 5.576 10.9674 5.744C10.7154 5.912 10.538 6.108 10.4354 6.332C10.4167 6.43467 10.4074 6.52333 10.4074 6.598C10.4074 6.67267 10.4074 6.74733 10.4074 6.822C10.4074 7.046 10.44 7.27 10.5054 7.494C10.5707 7.70867 10.664 7.90467 10.7854 8.082C10.916 8.25 11.0794 8.39 11.2754 8.502C11.4714 8.60467 11.7047 8.656 11.9754 8.656C12.414 8.656 12.7687 8.50667 13.0394 8.208C13.3194 7.90933 13.4594 7.52667 13.4594 7.06Z" fill="black"/>
</svg>
