<svg width="24" height="11" viewBox="0 0 24 11" fill="none" xmlns="http://www.w3.org/2000/svg">
<path d="M6.65 2.594C6.65 3.07 6.56133 3.55067 6.384 4.036C6.216 4.52133 5.99667 4.99733 5.726 5.464C5.46467 5.93067 5.17067 6.38333 4.844 6.822C4.52667 7.25133 4.214 7.648 3.906 8.012L3.164 8.586V8.656L4.172 8.46H6.86V10H0.966V9.062C1.19 8.82867 1.442 8.558 1.722 8.25C2.002 7.93267 2.282 7.60133 2.562 7.256C2.85133 6.90133 3.13133 6.53733 3.402 6.164C3.67267 5.79067 3.91533 5.41733 4.13 5.044C4.34467 4.66133 4.51267 4.29267 4.634 3.938C4.76467 3.58333 4.83 3.24733 4.83 2.93C4.83 2.54733 4.718 2.23467 4.494 1.992C4.27933 1.74 3.934 1.614 3.458 1.614C3.15933 1.614 2.85133 1.67933 2.534 1.81C2.226 1.93133 1.96467 2.09 1.75 2.286L1.022 0.998C1.386 0.699333 1.79667 0.461333 2.254 0.284C2.72067 0.0973329 3.26667 0.00399935 3.892 0.00399935C4.29333 0.00399935 4.662 0.0599995 4.998 0.172C5.334 0.283999 5.62333 0.447333 5.866 0.661999C6.10867 0.876666 6.3 1.14733 6.44 1.474C6.58 1.79133 6.65 2.16467 6.65 2.594ZM11.0234 8.586C11.6394 8.586 12.1107 8.43667 12.4374 8.138C12.764 7.83933 12.9274 7.42867 12.9274 6.906C12.9274 6.346 12.736 5.93533 12.3534 5.674C11.9707 5.41267 11.4247 5.282 10.7154 5.282L9.60936 5.324V0.199999H14.4254V1.908H11.1774V3.798L11.7514 3.742C12.2087 3.76067 12.6194 3.84467 12.9834 3.994C13.3567 4.14333 13.674 4.35333 13.9354 4.624C14.1967 4.88533 14.3974 5.20733 14.5374 5.59C14.6774 5.96333 14.7474 6.38333 14.7474 6.85C14.7474 7.40067 14.654 7.886 14.4674 8.306C14.2807 8.726 14.0194 9.076 13.6834 9.356C13.3567 9.636 12.9694 9.846 12.5214 9.986C12.0734 10.126 11.5834 10.196 11.0514 10.196C10.6314 10.196 10.23 10.1587 9.84736 10.084C9.47403 10.0187 9.15669 9.92533 8.89536 9.804L9.38536 8.292C9.60003 8.38533 9.83336 8.46 10.0854 8.516C10.3467 8.56267 10.6594 8.586 11.0234 8.586ZM23.6287 7.27H22.0887V10H20.3947V7.27H16.1527V6.234L20.5907 0.129999H22.0887V5.814H23.6287V7.27ZM20.3947 3.672L20.5207 2.496H20.4647L19.9887 3.504L18.5327 5.394L17.8327 5.926L18.7287 5.814H20.3947V3.672Z" fill="black"/>
</svg>
