<svg width="32" height="11" viewBox="0 0 32 11" fill="none" xmlns="http://www.w3.org/2000/svg">
<path d="M1.414 8.46H3.36V2.93L3.57 1.978L2.898 2.804L1.652 3.658L0.882 2.608L4.074 0.0319998H5.096V8.46H7V10H1.414V8.46ZM11.3174 8.656C11.896 8.656 12.3347 8.502 12.6334 8.194C12.9414 7.886 13.0954 7.51267 13.0954 7.074C13.0954 6.542 12.9367 6.15 12.6194 5.898C12.302 5.646 11.8027 5.52 11.1214 5.52H10.1134V4.554L11.8074 2.244L12.6054 1.614L11.4994 1.74H9.14736V0.199999H14.4954V1.194L12.5214 3.84L11.9054 4.218V4.288L12.4934 4.204C12.82 4.232 13.128 4.30667 13.4174 4.428C13.716 4.54933 13.9727 4.72667 14.1874 4.96C14.4114 5.184 14.5887 5.464 14.7194 5.8C14.85 6.136 14.9154 6.52333 14.9154 6.962C14.9154 7.51267 14.822 7.98867 14.6354 8.39C14.458 8.79133 14.206 9.12733 13.8794 9.398C13.562 9.66867 13.1887 9.86933 12.7594 10C12.33 10.1307 11.868 10.196 11.3734 10.196C10.9627 10.196 10.538 10.1587 10.0994 10.084C9.66069 10.0093 9.30603 9.902 9.03536 9.762L9.52536 8.25C9.76803 8.37133 10.034 8.46933 10.3234 8.544C10.622 8.61867 10.9534 8.656 11.3174 8.656ZM18.9667 8.586C19.5827 8.586 20.0541 8.43667 20.3807 8.138C20.7074 7.83933 20.8707 7.42867 20.8707 6.906C20.8707 6.346 20.6794 5.93533 20.2967 5.674C19.9141 5.41267 19.3681 5.282 18.6587 5.282L17.5527 5.324V0.199999H22.3687V1.908H19.1207V3.798L19.6947 3.742C20.1521 3.76067 20.5627 3.84467 20.9267 3.994C21.3001 4.14333 21.6174 4.35333 21.8787 4.624C22.1401 4.88533 22.3407 5.20733 22.4807 5.59C22.6207 5.96333 22.6907 6.38333 22.6907 6.85C22.6907 7.40067 22.5974 7.886 22.4107 8.306C22.2241 8.726 21.9627 9.076 21.6267 9.356C21.3001 9.636 20.9127 9.846 20.4647 9.986C20.0167 10.126 19.5267 10.196 18.9947 10.196C18.5747 10.196 18.1734 10.1587 17.7907 10.084C17.4174 10.0187 17.1001 9.92533 16.8387 9.804L17.3287 8.292C17.5434 8.38533 17.7767 8.46 18.0287 8.516C18.2901 8.56267 18.6027 8.586 18.9667 8.586ZM24.3901 5.086C24.3901 3.36867 24.6841 2.09467 25.2721 1.264C25.8601 0.424 26.7047 0.00399935 27.8061 0.00399935C28.9821 0.00399935 29.8454 0.419333 30.3961 1.25C30.9467 2.07133 31.2221 3.35 31.2221 5.086C31.2221 6.81267 30.9234 8.096 30.3261 8.936C29.7381 9.776 28.8934 10.196 27.7921 10.196C26.6254 10.196 25.7667 9.75733 25.2161 8.88C24.6654 7.99333 24.3901 6.72867 24.3901 5.086ZM26.2101 5.086C26.2101 6.22467 26.3314 7.10667 26.5741 7.732C26.8261 8.348 27.2367 8.656 27.8061 8.656C28.3567 8.656 28.7581 8.37133 29.0101 7.802C29.2714 7.23267 29.4021 6.32733 29.4021 5.086C29.4021 3.95667 29.2807 3.084 29.0381 2.468C28.7954 1.852 28.3801 1.544 27.7921 1.544C27.2321 1.544 26.8261 1.83333 26.5741 2.412C26.3314 2.99067 26.2101 3.882 26.2101 5.086Z" fill="black"/>
</svg>
