<svg width="23" height="11" viewBox="0 0 23 11" fill="none" xmlns="http://www.w3.org/2000/svg">
<path d="M1.414 8.46H3.36V2.93L3.57 1.978L2.898 2.804L1.652 3.658L0.882 2.608L4.074 0.0319998H5.096V8.46H7V10H1.414V8.46ZM15.6854 7.27H14.1454V10H12.4514V7.27H8.20936V6.234L12.6474 0.129999H14.1454V5.814H15.6854V7.27ZM12.4514 3.672L12.5774 2.496H12.5214L12.0454 3.504L10.5894 5.394L9.88936 5.926L10.7854 5.814H12.4514V3.672ZM19.2607 8.656C19.8394 8.656 20.2781 8.502 20.5767 8.194C20.8847 7.886 21.0387 7.51267 21.0387 7.074C21.0387 6.542 20.8801 6.15 20.5627 5.898C20.2454 5.646 19.7461 5.52 19.0647 5.52H18.0567V4.554L19.7507 2.244L20.5487 1.614L19.4427 1.74H17.0907V0.199999H22.4387V1.194L20.4647 3.84L19.8487 4.218V4.288L20.4367 4.204C20.7634 4.232 21.0714 4.30667 21.3607 4.428C21.6594 4.54933 21.9161 4.72667 22.1307 4.96C22.3547 5.184 22.5321 5.464 22.6627 5.8C22.7934 6.136 22.8587 6.52333 22.8587 6.962C22.8587 7.51267 22.7654 7.98867 22.5787 8.39C22.4014 8.79133 22.1494 9.12733 21.8227 9.398C21.5054 9.66867 21.1321 9.86933 20.7027 10C20.2734 10.1307 19.8114 10.196 19.3167 10.196C18.9061 10.196 18.4814 10.1587 18.0427 10.084C17.6041 10.0093 17.2494 9.902 16.9787 9.762L17.4687 8.25C17.7114 8.37133 17.9774 8.46933 18.2667 8.544C18.5654 8.61867 18.8967 8.656 19.2607 8.656Z" fill="black"/>
</svg>
